<svg width="84" height="44" viewBox="0 0 84 44" fill="none" xmlns="http://www.w3.org/2000/svg">
<path d="M50.5415 21.2168C50.5352 13.8939 54.3805 9.7184 61.1575 9.68861C67.7456 9.65962 72.1476 14.1964 72.2064 21.0769C72.2648 27.9209 67.8064 32.6788 61.324 32.6897C54.6109 32.7011 50.5478 28.3778 50.5415 21.2168ZM67.862 21.3304C67.9098 16.0248 65.3252 12.7513 61.1379 12.8144C57.183 12.874 54.5019 16.1608 54.4431 21.0224C54.3824 26.0213 56.8906 29.1169 61.0505 29.1768C65.5419 29.2415 67.8146 26.6235 67.862 21.3304Z" fill="#FC6BB4"/>
<path d="M37.4018 27.0719C39.8132 21.7526 41.9245 17.0214 44.1099 12.3243C44.7051 11.0449 45.1996 9.14797 47.2117 9.98418C49.1506 10.7898 48.4116 12.3603 47.7462 13.7632C45.1526 19.2338 42.5879 24.7181 39.9821 30.1832C39.4567 31.2855 38.9661 32.5899 37.4477 32.5915C36.0037 32.5931 35.3156 31.5057 34.7655 30.3419C32.019 24.5331 29.2921 18.715 26.4982 12.9289C25.8348 11.5551 25.9128 10.4857 27.4061 9.93246C28.8646 9.3921 29.7376 10.2342 30.3148 11.5073C32.5554 16.4512 34.8117 21.3878 37.4018 27.0719Z" fill="#FC6BB4"/>
<path d="M31.7699 31.8551C31.8514 33.2646 31.0634 34.0562 30.0384 34.5832C28.6657 35.2889 27.5101 34.5867 26.8185 33.5232C25.6069 31.6612 24.6116 29.6596 23.5513 27.7027C20.8405 22.7008 18.1626 17.6816 15.4314 12.6906C14.4318 10.8638 14.0215 9.05191 16.154 7.88852C18.2849 6.7259 19.4091 8.43867 20.2382 9.96414C23.9004 16.7004 27.4764 23.4829 31.0724 30.2544C31.3601 30.796 31.5654 31.3802 31.7699 31.8551Z" fill="#BD65E6"/>
<path d="M12.9229 16.4237C14.4966 16.7364 16.051 17.8551 14.9601 20.1008C12.7532 24.6447 10.2646 29.0585 7.76461 33.455C7.0487 34.714 5.72896 35.3782 4.26266 34.4801C3.00051 33.707 2.22896 32.6016 3.04832 31.0597C5.42253 26.5934 7.80575 22.1318 10.2188 17.6863C10.6474 16.8979 11.3434 16.3696 12.9229 16.4237Z" fill="#BD65E6"/>
<path d="M73.826 21.1315C73.8264 18.175 73.8229 15.2185 73.828 12.262C73.8303 10.867 74.3174 9.74674 75.9208 9.83059C77.2994 9.90269 77.7214 10.9815 77.7245 12.1997C77.7386 18.1123 77.7359 24.0253 77.7386 29.9383C77.7394 31.2819 77.4181 32.5453 75.8123 32.5621C74.2277 32.5786 73.8197 31.3772 73.8233 30.0006C73.8303 27.0445 73.8252 24.088 73.826 21.1315Z" fill="#FC6BB4"/>
<path d="M17.235 30.5902C15.4473 30.5122 14.4673 29.6118 14.5614 27.8132C14.6441 26.2387 15.5402 25.3645 17.1719 25.3156C18.99 25.2611 20.0731 26.283 20.1033 27.9296C20.1335 29.5961 19.0508 30.6063 17.235 30.5902Z" fill="#BD65E6"/>
</svg>
