<svg width="81" height="80" viewBox="0 0 81 80" fill="none" xmlns="http://www.w3.org/2000/svg">
<rect x="0.5" width="80" height="80" rx="40" fill="#D9F4FF"/>
<path d="M41 32C44.7753 32 48.4949 32.7602 52.1589 34.2805C55.8228 35.8009 59.0779 38.0801 61.9241 41.1183C62.308 41.5022 62.5 41.9501 62.5 42.4621C62.5 42.974 62.308 43.4219 61.9241 43.8058L57.5089 48.125C57.157 48.4769 56.7487 48.6689 56.2842 48.7009C55.8196 48.7329 55.396 48.6049 55.0134 48.317L49.4464 44.0937C49.1905 43.9018 48.9985 43.6778 48.8705 43.4219C48.7426 43.1659 48.6786 42.878 48.6786 42.558V37.0871C47.4628 36.7031 46.215 36.3992 44.9353 36.1752C43.6555 35.9513 42.3437 35.8393 41 35.8393C39.6562 35.8393 38.3445 35.9513 37.0647 36.1752C35.785 36.3992 34.5372 36.7031 33.3214 37.0871V42.558C33.3214 42.878 33.2574 43.1659 33.1295 43.4219C33.0015 43.6778 32.8095 43.9018 32.5536 44.0937L26.9866 48.317C26.6027 48.6049 26.1784 48.7329 25.7139 48.7009C25.2493 48.6689 24.8417 48.4769 24.4911 48.125L20.0759 43.8058C19.692 43.4219 19.5 42.974 19.5 42.4621C19.5 41.9501 19.692 41.5022 20.0759 41.1183C22.8914 38.0789 26.1388 35.7996 29.8181 34.2805C33.4974 32.7615 37.2247 32.0013 41 32Z" fill="#C20000"/>
</svg>
