<svg width="61" height="62" viewBox="0 0 61 62" fill="none" xmlns="http://www.w3.org/2000/svg">
<path fill-rule="evenodd" clip-rule="evenodd" d="M34.1252 11.3749C34.1252 5.0927 29.0324 0 22.7502 0L22.126 0.0167579C16.1341 0.340793 11.3751 5.30217 11.3751 11.3749C11.3751 17.6572 16.468 22.75 22.7502 22.75L23.3743 22.733C29.3663 22.4092 34.1252 17.4478 34.1252 11.3749ZM26.0001 48.75C26.0001 52.3017 26.9497 55.6318 28.6089 58.5H0.000244141V46.8C0.000244141 37.3497 7.26217 29.644 16.3594 29.2646L17.0626 29.25H28.4376C31.3983 29.25 34.1828 30.0256 36.6097 31.39C30.3104 34.6226 26.0001 41.1829 26.0001 48.75ZM35.9486 61.8965L45.5001 56.0625L55.0516 61.8965L52.4548 51.0096L60.9548 43.7284L49.7984 42.834L45.5001 32.5L41.2019 42.834L30.0455 43.7284L38.5455 51.0096L35.9486 61.8965Z" fill="#067CAC"/>
</svg>
