<svg width="81" height="80" viewBox="0 0 81 80" fill="none" xmlns="http://www.w3.org/2000/svg">
<rect x="0.499969" width="80" height="80" rx="40" fill="#D9F4FF"/>
<path opacity="0.4" d="M56.4485 35.395C55.3162 35.395 54.3971 36.3006 54.3971 37.4209C54.3971 44.9874 48.1629 51.1439 40.501 51.1439C32.8369 51.1439 26.6027 44.9874 26.6027 37.4209C26.6027 36.3006 25.6837 35.395 24.5513 35.395C23.419 35.395 22.4999 36.3006 22.4999 37.4209C22.4999 46.5372 29.487 54.0632 38.4496 55.0741V59.1501C38.4496 60.2684 39.3665 61.1759 40.501 61.1759C41.6333 61.1759 42.5524 60.2684 42.5524 59.1501V55.0741C51.5129 54.0632 58.4999 46.5372 58.4999 37.4209C58.4999 36.3006 57.5809 35.395 56.4485 35.395Z" fill="#00C22A"/>
<path d="M40.1285 46.8123H40.8712C45.9586 46.8123 50.086 42.7384 50.086 37.7143V27.9233C50.086 22.8952 45.9586 18.8232 40.8712 18.8232H40.1285C35.0411 18.8232 30.9137 22.8952 30.9137 27.9233V37.7143C30.9137 42.7384 35.0411 46.8123 40.1285 46.8123Z" fill="#00C22A"/>
</svg>
