<svg width="63" height="62" viewBox="0 0 63 62" fill="none" xmlns="http://www.w3.org/2000/svg">
<path d="M28.5416 0.333496C24.2871 0.333496 20.2068 2.0236 17.1984 5.03199C14.19 8.04039 12.4999 12.1206 12.4999 16.3752C12.4999 20.6297 14.19 24.7099 17.1984 27.7183C20.2068 30.7267 24.2871 32.4168 28.5416 32.4168C32.7961 32.4168 36.8764 30.7267 39.8848 27.7183C42.8932 24.7099 44.5833 20.6297 44.5833 16.3752C44.5833 12.1206 42.8932 8.04039 39.8848 5.03199C36.8764 2.0236 32.7961 0.333496 28.5416 0.333496ZM62.0833 49.9168H50.4166V61.5835H44.5833V49.9168H32.9166V44.0835H44.5833V32.4168H50.4166V44.0835H62.0833V49.9168ZM32.5549 35.3335C29.9478 38.6629 28.5344 42.7715 28.5416 47.0002C28.5416 51.4014 30.0408 55.4497 32.5549 58.6668H0.833252V52.8335C0.833252 48.1922 2.677 43.741 5.95888 40.4591C9.24077 37.1772 13.692 35.3335 18.3333 35.3335H32.5549Z" fill="#067CAC"/>
</svg>
