<svg width="324" height="227" viewBox="0 0 324 227" fill="none" xmlns="http://www.w3.org/2000/svg">
<rect width="324" height="227" rx="20" fill="url(#paint0_linear_139_1044)"/>
<rect x="246.837" y="28.6628" width="169.674" height="169.674" rx="84.8371" transform="rotate(90 246.837 28.6628)" stroke="url(#paint1_linear_139_1044)" stroke-width="0.32567"/>
<g filter="url(#filter0_d_139_1044)">
<rect x="90.3524" y="41.8515" width="142.644" height="142.644" rx="71.3218" stroke="url(#paint2_linear_139_1044)" stroke-width="0.651341" shape-rendering="crispEdges"/>
</g>
<path d="M220.368 103.068C220.389 103.3 220.388 103.541 220.374 103.782C220.315 104.601 220.257 105.425 220.189 106.248C220.461 111.009 220.031 115.754 219.692 120.505C219.673 120.758 219.658 121.017 219.648 121.271C219.635 121.837 219.622 122.399 219.609 122.965C219.604 124.142 219.629 125.316 219.624 126.484C219.677 126.485 219.729 126.495 219.782 126.492C222.501 126.502 224.726 121.255 224.753 114.767C224.78 108.675 222.858 103.657 220.373 103.064L220.368 103.068Z" fill="url(#paint3_linear_139_1044)"/>
<path opacity="0.57" d="M211.259 91.5814C211.259 91.5814 219.338 95.0971 219.945 97.368C220.551 99.6389 219.807 128.7 218.811 130.702C217.815 132.703 209.35 137.282 209.35 137.282L211.259 91.5769L211.259 91.5814Z" fill="url(#paint4_linear_139_1044)"/>
<path style="mix-blend-mode:overlay" d="M210.784 100.583L210.48 107.654C213.706 107.712 216.933 107.69 220.153 107.824C220.185 105.739 220.201 103.809 220.191 102.176C217.063 101.596 213.924 101.083 210.78 100.579L210.784 100.583Z" fill="url(#paint5_linear_139_1044)"/>
<path style="mix-blend-mode:overlay" d="M215.243 93.6405C215.243 93.6405 215.593 104.725 215.209 114.914C215.189 115.449 214.897 115.929 214.442 116.186C214.013 116.426 213.726 116.871 213.681 117.374L211.983 135.758" stroke="url(#paint6_linear_139_1044)" stroke-width="0.382974" stroke-miterlimit="10"/>
<path d="M104.23 100.87C104.198 101.101 104.188 101.342 104.192 101.583C104.212 102.404 104.232 103.229 104.262 104.055C103.77 108.798 103.98 113.557 104.098 118.319C104.106 118.574 104.108 118.832 104.107 119.086C104.094 119.653 104.081 120.214 104.068 120.78C104.018 121.957 103.939 123.128 103.89 124.295C103.837 124.294 103.784 124.302 103.731 124.296C101.024 124.184 99.0397 118.834 99.3127 112.356C99.5678 106.269 101.72 101.346 104.23 100.87Z" fill="url(#paint7_linear_139_1044)"/>
<path opacity="0.57" d="M113.864 89.758C113.864 89.758 105.63 92.8929 104.919 95.133C104.207 97.3731 103.603 126.438 104.505 128.484C105.407 130.529 113.651 135.499 113.651 135.499L113.864 89.7536L113.864 89.758Z" fill="url(#paint8_linear_139_1044)"/>
<path style="mix-blend-mode:overlay" d="M109.719 91.62C109.719 91.62 108.893 102.678 108.838 112.874C108.835 113.41 109.106 113.902 109.55 114.18C109.968 114.439 110.235 114.896 110.259 115.401L111.165 133.843" stroke="url(#paint9_linear_139_1044)" stroke-width="0.382974" stroke-miterlimit="10"/>
<path d="M212.409 123.614C212.072 127.105 211.735 130.391 211.465 133.255C210.644 141.981 205.372 150.361 186.972 153.928L186.949 153.936C180.312 155.217 171.969 155.88 161.512 155.697C161.387 155.694 161.271 155.692 161.142 155.689C161.021 155.687 160.905 155.684 160.776 155.682C151.433 155.459 143.804 154.635 137.595 153.353C117.57 149.218 112.286 140.3 111.812 131.209C111.657 128.341 111.463 125.049 111.273 121.547C110.939 115.511 111.066 109.458 111.653 103.446C111.989 99.9502 112.322 96.664 112.596 93.8C113.418 85.0698 118.69 76.6937 137.09 73.1225L137.113 73.1141C137.211 73.0983 137.31 73.078 137.408 73.0577C138.494 72.8527 139.627 72.6665 140.806 72.4946C146.773 71.632 153.946 71.213 162.549 71.358C162.674 71.3561 162.79 71.3629 162.915 71.3655C163.04 71.3681 163.156 71.366 163.286 71.3686C172.446 71.5919 179.969 72.3832 186.11 73.6274C186.231 73.6521 186.351 73.6769 186.466 73.7015C187.102 73.8304 187.72 73.9678 188.329 74.105C206.823 78.405 211.792 87.0399 212.25 95.8454C212.4 98.7136 212.599 102.006 212.789 105.508C213.122 111.544 212.995 117.597 212.409 123.614Z" fill="url(#paint10_linear_139_1044)"/>
<path d="M119.713 99.0281L137.104 92.3971L173.337 92.39L202.92 97.3277L207.874 107.809L205.369 139.009L196.891 145.056L171.655 143.324L163.023 140.115L151.264 143.878L136.771 143.581C136.771 143.581 122.493 141.13 122.441 140.844C122.389 140.558 118.548 133.256 118.548 133.256L117.766 107.079L119.713 99.0325L119.713 99.0281Z" fill="url(#paint11_linear_139_1044)"/>
<path d="M119.713 99.0281L137.104 92.3971L173.337 92.39L202.92 97.3277L207.874 107.809L205.369 139.009L196.891 145.056L171.655 143.324L163.023 140.115L151.264 143.878L136.771 143.581C136.771 143.581 122.493 141.13 122.441 140.844C122.389 140.558 118.548 133.256 118.548 133.256L117.766 107.079L119.713 99.0325L119.713 99.0281Z" fill="url(#paint12_linear_139_1044)"/>
<path opacity="0.2" d="M208.051 102.208C207.098 95.2369 195.655 90.3669 163.442 90.0776C131.708 89.7936 117.669 94.08 117.191 101.08C116.759 107.413 116.953 112.413 116.953 112.413C116.705 124.236 117.622 132.912 118.264 137.437C118.902 141.961 122.59 143.987 130.564 144.27C138.542 144.554 150.907 145.542 153.744 144.255C156.586 142.972 159.558 142.303 162.345 142.36C167.454 142.464 169.832 145.381 172.673 145.439C177.782 145.544 197.349 145.877 200.168 145.694C202.986 145.507 205.982 142.642 206.768 134.371C207.554 126.095 208.853 108.041 208.055 102.208L208.051 102.208ZM201.202 137.058C198.806 140.545 196.932 142.337 188.619 142.042C182.154 141.816 175.534 141.734 172.916 141.712C172.242 141.707 171.589 141.498 171.034 141.113C169.898 140.328 167.294 139.014 162.356 138.829C157.42 138.812 154.758 140.018 153.59 140.756C153.019 141.118 152.359 141.301 151.684 141.278C149.068 141.193 142.45 141.004 135.982 140.966C127.663 140.916 126.315 138.733 123.618 135.471C121.322 132.694 120.267 111.626 121.304 103.72C121.794 99.9716 128.056 96.4613 137.532 96.2499C146.687 96.0452 151.52 100.179 163.163 100.417C173.609 100.631 179.807 96.7227 188.946 97.3016C198.405 97.9003 204.147 101.714 204.846 105.429C205.903 111.062 203.599 133.571 201.202 137.058Z" fill="black"/>
<path d="M186.072 73.5771C181.694 79.5743 173.076 83.5528 163.25 83.353C153.423 83.1531 144.794 78.7306 140.723 72.4549C146.696 71.5902 153.876 71.172 162.488 71.316C162.613 71.3141 162.729 71.3209 162.854 71.3235C162.979 71.326 163.095 71.324 163.225 71.3266C172.394 71.5486 179.924 72.337 186.072 73.5771Z" fill="url(#paint13_linear_139_1044)"/>
<path d="M208.827 100.182C207.847 93.0275 196.103 88.0266 163.041 87.7333C130.471 87.4412 116.059 91.8402 115.569 99.0268C115.124 105.524 115.325 110.658 115.325 110.658C115.07 122.793 116.013 131.697 116.666 136.342C117.32 140.987 121.105 143.064 129.293 143.356C137.481 143.648 150.171 144.66 153.085 143.344C155.999 142.027 159.052 141.337 161.91 141.395C167.154 141.503 169.593 144.496 172.509 144.556C177.752 144.663 197.838 145.007 200.728 144.817C203.618 144.627 206.696 141.684 207.5 133.194C208.303 124.7 209.64 106.166 208.818 100.186L208.827 100.182ZM201.799 135.954C199.338 139.534 197.418 141.369 188.886 141.07C182.247 140.836 175.457 140.755 172.768 140.731C172.076 140.726 171.405 140.512 170.833 140.117C169.67 139.31 166.991 137.963 161.928 137.775C156.862 137.756 154.128 138.996 152.933 139.751C152.349 140.122 151.67 140.309 150.974 140.286C148.286 140.199 141.499 140.003 134.855 139.965C126.318 139.915 124.936 137.673 122.169 134.326C119.811 131.476 118.728 109.851 119.792 101.741C120.297 97.8944 126.722 94.2939 136.449 94.0742C145.845 93.8656 150.805 98.1087 162.756 98.3532C173.479 98.5725 179.841 94.561 189.22 95.1537C198.929 95.7709 204.821 99.6813 205.541 103.495C206.626 109.275 204.26 132.38 201.799 135.954Z" fill="url(#paint14_linear_139_1044)"/>
<path d="M208.803 101.435C207.823 94.2809 196.079 89.28 163.017 88.9867C130.447 88.6946 116.035 93.0936 115.545 100.28C115.1 106.777 115.301 111.912 115.301 111.912C115.046 124.046 115.989 132.95 116.642 137.595C117.3 142.236 121.081 144.317 129.269 144.609C137.457 144.901 150.147 145.914 153.061 144.597C155.975 143.281 159.028 142.59 161.886 142.649C167.129 142.756 169.569 145.75 172.485 145.809C177.728 145.917 197.813 146.261 200.704 146.07C203.594 145.88 206.672 142.937 207.476 134.448C208.279 125.954 209.616 107.419 208.794 101.44L208.803 101.435ZM201.774 137.208C199.313 140.787 197.394 142.623 188.862 142.323C182.223 142.09 175.433 142.009 172.744 141.985C172.052 141.979 171.381 141.765 170.809 141.371C169.646 140.563 166.967 139.217 161.904 139.029C156.838 139.01 154.104 140.25 152.909 141.005C152.325 141.376 151.646 141.562 150.95 141.539C148.262 141.453 141.475 141.256 134.831 141.218C126.294 141.168 124.911 138.927 122.145 135.579C119.787 132.73 118.704 111.104 119.768 102.994C120.273 99.1478 126.698 95.5473 136.425 95.3277C145.821 95.1191 150.781 99.3621 162.732 99.6066C173.455 99.8259 179.817 95.8145 189.196 96.4071C198.905 97.0243 204.797 100.935 205.516 104.748C206.601 110.529 204.235 133.633 201.774 137.208Z" fill="url(#paint15_linear_139_1044)"/>
<path d="M185.877 118.074C188.182 118.122 190.112 115.264 190.186 111.692C190.261 108.12 188.453 105.186 186.148 105.139C183.843 105.092 181.913 107.949 181.839 111.521C181.764 115.093 183.572 118.027 185.877 118.074Z" fill="white"/>
<path d="M139.429 118.004C141.735 118.052 143.664 115.194 143.739 111.622C143.813 108.05 142.005 105.116 139.7 105.069C137.395 105.022 135.466 107.879 135.391 111.451C135.316 115.023 137.124 117.957 139.429 118.004Z" fill="white"/>
<path d="M173.838 128.191C174.625 128.207 175.012 129.133 174.477 129.704C172.071 132.288 167.207 133.996 161.634 133.883C156.061 133.77 151.273 131.866 148.977 129.186C148.471 128.594 148.897 127.684 149.679 127.7L173.834 128.19L173.838 128.191Z" fill="white"/>
<defs>
<filter id="filter0_d_139_1044" x="74.3946" y="25.8937" width="184.981" height="184.981" filterUnits="userSpaceOnUse" color-interpolation-filters="sRGB">
<feFlood flood-opacity="0" result="BackgroundImageFix"/>
<feColorMatrix in="SourceAlpha" type="matrix" values="0 0 0 0 0 0 0 0 0 0 0 0 0 0 0 0 0 0 127 0" result="hardAlpha"/>
<feOffset dx="5.21073" dy="5.21073"/>
<feGaussianBlur stdDeviation="10.4215"/>
<feComposite in2="hardAlpha" operator="out"/>
<feColorMatrix type="matrix" values="0 0 0 0 0.619608 0 0 0 0 0.372549 0 0 0 0 0.780392 0 0 0 0.5 0"/>
<feBlend mode="normal" in2="BackgroundImageFix" result="effect1_dropShadow_139_1044"/>
<feBlend mode="normal" in="SourceGraphic" in2="effect1_dropShadow_139_1044" result="shape"/>
</filter>
<linearGradient id="paint0_linear_139_1044" x1="162" y1="0" x2="162" y2="227" gradientUnits="userSpaceOnUse">
<stop stop-color="#067CAC"/>
<stop offset="1" stop-color="#09347A"/>
</linearGradient>
<linearGradient id="paint1_linear_139_1044" x1="340.391" y1="28.5" x2="340.391" y2="190.839" gradientUnits="userSpaceOnUse">
<stop stop-color="#1AB4CC"/>
<stop offset="1" stop-color="#FFDBC8" stop-opacity="0.5"/>
</linearGradient>
<linearGradient id="paint2_linear_139_1044" x1="161.674" y1="21.0086" x2="161.674" y2="184.821" gradientUnits="userSpaceOnUse">
<stop stop-color="white"/>
<stop offset="1" stop-color="#1AB4CC" stop-opacity="0.6"/>
</linearGradient>
<linearGradient id="paint3_linear_139_1044" x1="231.401" y1="115.162" x2="215.073" y2="114.623" gradientUnits="userSpaceOnUse">
<stop offset="0.17" stop-color="white"/>
<stop offset="0.37" stop-color="#FCFCFF"/>
<stop offset="0.52" stop-color="#F2F4FF"/>
<stop offset="0.66" stop-color="#E2E7FF"/>
<stop offset="0.79" stop-color="#CBD4FF"/>
<stop offset="0.9" stop-color="#AEBCFF"/>
<stop offset="1" stop-color="#91A4FF"/>
</linearGradient>
<linearGradient id="paint4_linear_139_1044" x1="215.218" y1="61.8443" x2="214.678" y2="133.008" gradientUnits="userSpaceOnUse">
<stop offset="0.17" stop-color="#43F1FF"/>
<stop offset="0.56" stop-color="#44EBF8"/>
<stop offset="0.99" stop-color="#49DFEB"/>
</linearGradient>
<linearGradient id="paint5_linear_139_1044" x1="206.833" y1="105.188" x2="220.864" y2="103.581" gradientUnits="userSpaceOnUse">
<stop offset="0.17" stop-color="white"/>
<stop offset="0.24" stop-color="#FCFBFB" stop-opacity="0.97"/>
<stop offset="0.35" stop-color="#F4F2F2" stop-opacity="0.9"/>
<stop offset="0.47" stop-color="#E7E3E3" stop-opacity="0.79"/>
<stop offset="0.6" stop-color="#D6CECD" stop-opacity="0.63"/>
<stop offset="0.75" stop-color="#BFB3B2" stop-opacity="0.42"/>
<stop offset="0.9" stop-color="#A49391" stop-opacity="0.17"/>
<stop offset="0.99" stop-color="#917D7B" stop-opacity="0"/>
</linearGradient>
<linearGradient id="paint6_linear_139_1044" x1="215.553" y1="114.717" x2="211.85" y2="114.706" gradientUnits="userSpaceOnUse">
<stop offset="0.17" stop-color="white"/>
<stop offset="0.24" stop-color="#FCFBFB" stop-opacity="0.97"/>
<stop offset="0.35" stop-color="#F4F2F2" stop-opacity="0.9"/>
<stop offset="0.47" stop-color="#E7E3E3" stop-opacity="0.79"/>
<stop offset="0.6" stop-color="#D6CECD" stop-opacity="0.63"/>
<stop offset="0.75" stop-color="#BFB3B2" stop-opacity="0.42"/>
<stop offset="0.9" stop-color="#A49391" stop-opacity="0.17"/>
<stop offset="0.99" stop-color="#917D7B" stop-opacity="0"/>
</linearGradient>
<linearGradient id="paint7_linear_139_1044" x1="92.6488" y1="112.434" x2="108.985" y2="112.652" gradientUnits="userSpaceOnUse">
<stop offset="0.17" stop-color="white"/>
<stop offset="0.37" stop-color="#FCFCFF"/>
<stop offset="0.52" stop-color="#F2F4FF"/>
<stop offset="0.66" stop-color="#E2E7FF"/>
<stop offset="0.79" stop-color="#CBD4FF"/>
<stop offset="0.9" stop-color="#AEBCFF"/>
<stop offset="1" stop-color="#91A4FF"/>
</linearGradient>
<linearGradient id="paint8_linear_139_1044" x1="111.282" y1="59.866" x2="108.506" y2="130.977" gradientUnits="userSpaceOnUse">
<stop offset="0.17" stop-color="#43F1FF"/>
<stop offset="0.56" stop-color="#44EBF8"/>
<stop offset="0.99" stop-color="#49DFEB"/>
</linearGradient>
<linearGradient id="paint9_linear_139_1044" x1="108.498" y1="112.66" x2="112.202" y2="112.808" gradientUnits="userSpaceOnUse">
<stop offset="0.17" stop-color="white"/>
<stop offset="0.24" stop-color="#FCFBFB" stop-opacity="0.97"/>
<stop offset="0.35" stop-color="#F4F2F2" stop-opacity="0.9"/>
<stop offset="0.47" stop-color="#E7E3E3" stop-opacity="0.79"/>
<stop offset="0.6" stop-color="#D6CECD" stop-opacity="0.63"/>
<stop offset="0.75" stop-color="#BFB3B2" stop-opacity="0.42"/>
<stop offset="0.9" stop-color="#A49391" stop-opacity="0.17"/>
<stop offset="0.99" stop-color="#917D7B" stop-opacity="0"/>
</linearGradient>
<linearGradient id="paint10_linear_139_1044" x1="150.814" y1="73.1897" x2="180.408" y2="179.968" gradientUnits="userSpaceOnUse">
<stop stop-color="white"/>
<stop offset="0.25" stop-color="#FCFCFF"/>
<stop offset="0.43" stop-color="#F2F4FF"/>
<stop offset="0.59" stop-color="#E2E7FF"/>
<stop offset="0.74" stop-color="#CBD4FF"/>
<stop offset="0.89" stop-color="#AEBCFF"/>
<stop offset="1" stop-color="#91A4FF"/>
</linearGradient>
<linearGradient id="paint11_linear_139_1044" x1="161.339" y1="97.7553" x2="165.146" y2="144.22" gradientUnits="userSpaceOnUse">
<stop offset="0.17" stop-color="#5712FF"/>
<stop offset="0.4" stop-color="#5B18FC"/>
<stop offset="0.73" stop-color="#662AF4"/>
<stop offset="0.99" stop-color="#743EEB"/>
</linearGradient>
<linearGradient id="paint12_linear_139_1044" x1="163.14" y1="92.1814" x2="162.073" y2="144.344" gradientUnits="userSpaceOnUse">
<stop stop-color="#067CAC"/>
<stop offset="1" stop-color="#09347A"/>
</linearGradient>
<linearGradient id="paint13_linear_139_1044" x1="163.426" y1="71.7394" x2="163.147" y2="85.4922" gradientUnits="userSpaceOnUse">
<stop stop-color="white"/>
<stop offset="0.25" stop-color="#FCFCFF"/>
<stop offset="0.43" stop-color="#F2F4FF"/>
<stop offset="0.59" stop-color="#E2E7FF"/>
<stop offset="0.74" stop-color="#CBD4FF"/>
<stop offset="0.89" stop-color="#AEBCFF"/>
<stop offset="1" stop-color="#91A4FF"/>
</linearGradient>
<linearGradient id="paint14_linear_139_1044" x1="164.25" y1="155.525" x2="163.786" y2="145.669" gradientUnits="userSpaceOnUse">
<stop stop-color="white"/>
<stop offset="0.25" stop-color="#FCFCFF"/>
<stop offset="0.43" stop-color="#F2F4FF"/>
<stop offset="0.59" stop-color="#E2E7FF"/>
<stop offset="0.74" stop-color="#CBD4FF"/>
<stop offset="0.88" stop-color="#AEBCFF"/>
<stop offset="1" stop-color="#91A4FF"/>
</linearGradient>
<linearGradient id="paint15_linear_139_1044" x1="161.492" y1="126.328" x2="160.319" y2="159.339" gradientUnits="userSpaceOnUse">
<stop offset="0.17" stop-color="white"/>
<stop offset="0.37" stop-color="#FCFCFF"/>
<stop offset="0.52" stop-color="#F2F4FF"/>
<stop offset="0.66" stop-color="#E2E7FF"/>
<stop offset="0.79" stop-color="#CBD4FF"/>
<stop offset="0.9" stop-color="#AEBCFF"/>
<stop offset="1" stop-color="#91A4FF"/>
</linearGradient>
</defs>
</svg>
